<svg width="130" height="130" viewBox="0 0 130 130" fill="none" xmlns="http://www.w3.org/2000/svg">
    <mask id="path-1-inside-1_914_61528" fill="white">
        <path fill-rule="evenodd" clip-rule="evenodd"
              d="M49.9746 104.882C45.1151 108.166 42.6854 109.807 40.6684 109.696C38.9115 109.598 37.2859 108.735 36.2217 107.334C35 105.725 35 102.792 35 96.9276V33.0725C35 27.2077 35 24.2753 36.2217 22.6666C37.2859 21.2653 38.9115 20.4018 40.6684 20.3045C42.6854 20.1929 45.1151 21.8346 49.9747 25.1181L97.2274 57.0456C101.17 59.7098 103.142 61.0419 103.831 62.7154C104.434 64.1789 104.434 65.8212 103.831 67.2847C103.142 68.9583 101.17 70.2904 97.2274 72.9545L49.9746 104.882ZM126 21.0001C128.209 21.0001 130 22.7909 130 25.0001V105C130 107.209 128.209 109 126 109H116.5C114.291 109 112.5 107.209 112.5 105V25.0001C112.5 22.7909 114.291 21.0001 116.5 21.0001H126Z"/>
    </mask>
    <path fill-rule="evenodd" clip-rule="evenodd"
          d="M49.9746 104.882C45.1151 108.166 42.6854 109.807 40.6684 109.696C38.9115 109.598 37.2859 108.735 36.2217 107.334C35 105.725 35 102.792 35 96.9276V33.0725C35 27.2077 35 24.2753 36.2217 22.6666C37.2859 21.2653 38.9115 20.4018 40.6684 20.3045C42.6854 20.1929 45.1151 21.8346 49.9747 25.1181L97.2274 57.0456C101.17 59.7098 103.142 61.0419 103.831 62.7154C104.434 64.1789 104.434 65.8212 103.831 67.2847C103.142 68.9583 101.17 70.2904 97.2274 72.9545L49.9746 104.882ZM126 21.0001C128.209 21.0001 130 22.7909 130 25.0001V105C130 107.209 128.209 109 126 109H116.5C114.291 109 112.5 107.209 112.5 105V25.0001C112.5 22.7909 114.291 21.0001 116.5 21.0001H126Z"
          fill="#53389E"/>
    <path d="M103.831 62.7154L104.756 62.3347L103.831 62.7154ZM97.2274 72.9545L96.6675 72.126L97.2274 72.9545ZM103.831 67.2847L104.756 67.6655L103.831 67.2847ZM36.2217 107.334L37.0181 106.729L36.2217 107.334ZM49.9746 104.882L50.5345 105.711L49.9746 104.882ZM40.6684 109.696L40.6132 110.694L40.6684 109.696ZM40.6684 20.3045L40.6132 19.3061L40.6684 20.3045ZM34 33.0725V96.9276H36V33.0725H34ZM97.7873 56.217L50.5345 24.2895L49.4148 25.9467L96.6675 57.8742L97.7873 56.217ZM50.5345 105.711L97.7872 73.7831L96.6675 72.126L49.4148 104.053L50.5345 105.711ZM131 25.0001C131 22.2387 128.761 20.0001 126 20.0001V22.0001C127.657 22.0001 129 23.3432 129 25.0001H131ZM131 105V25.0001H129V105H131ZM126 110C128.761 110 131 107.762 131 105H129C129 106.657 127.657 108 126 108V110ZM116.5 110H126V108H116.5V110ZM111.5 105C111.5 107.762 113.739 110 116.5 110V108C114.843 108 113.5 106.657 113.5 105H111.5ZM111.5 25.0001V105H113.5V25.0001H111.5ZM116.5 20.0001C113.739 20.0001 111.5 22.2387 111.5 25.0001H113.5C113.5 23.3432 114.843 22.0001 116.5 22.0001V20.0001ZM126 20.0001H116.5V22.0001H126V20.0001ZM96.6675 57.8742C98.6549 59.217 100.088 60.1868 101.117 61.0266C102.143 61.8647 102.656 62.4883 102.906 63.0962L104.756 62.3347C104.317 61.269 103.499 60.3898 102.382 59.4774C101.267 58.5667 99.7429 57.5384 97.7873 56.217L96.6675 57.8742ZM97.7872 73.7831C99.7429 72.4618 101.266 71.4335 102.382 70.5228C103.499 69.6104 104.317 68.7312 104.756 67.6655L102.906 66.904C102.656 67.5118 102.143 68.1355 101.117 68.9736C100.088 69.8134 98.6549 70.7832 96.6675 72.126L97.7872 73.7831ZM102.906 63.0962C103.409 64.3158 103.409 65.6844 102.906 66.904L104.756 67.6655C105.459 65.9581 105.459 64.0421 104.756 62.3347L102.906 63.0962ZM34 96.9276C34 99.8401 33.999 102.094 34.1569 103.818C34.3138 105.531 34.6386 106.902 35.4253 107.938L37.0181 106.729C36.5831 106.156 36.2971 105.257 36.1485 103.635C36.001 102.025 36 99.8799 36 96.9276H34ZM49.4148 104.053C46.9685 105.706 45.1909 106.906 43.7736 107.686C42.347 108.47 41.4419 108.737 40.7237 108.697L40.6132 110.694C41.9119 110.766 43.2302 110.267 44.7375 109.438C46.2542 108.604 48.1212 107.341 50.5345 105.711L49.4148 104.053ZM35.4253 107.938C36.6669 109.573 38.5635 110.581 40.6132 110.694L40.7237 108.697C39.2596 108.616 37.9049 107.896 37.0181 106.729L35.4253 107.938ZM36 33.0725C36 30.1203 36.001 27.9756 36.1485 26.3648C36.2971 24.7433 36.5831 23.8442 37.0181 23.2714L35.4253 22.0618C34.6386 23.0977 34.3138 24.4692 34.1569 26.1823C33.999 27.9061 34 30.16 34 33.0725H36ZM50.5345 24.2895C48.1212 22.6589 46.2542 21.3962 44.7375 20.5619C43.2302 19.7328 41.912 19.2342 40.6132 19.3061L40.7237 21.303C41.4419 21.2633 42.347 21.5296 43.7736 22.3144C45.1909 23.0939 46.9686 24.2938 49.4148 25.9467L50.5345 24.2895ZM37.0181 23.2714C37.9049 22.1037 39.2596 21.384 40.7237 21.303L40.6132 19.3061C38.5635 19.4195 36.6669 20.427 35.4253 22.0618L37.0181 23.2714Z"
          fill="url(#paint0_linear_914_61528)" fill-opacity="0.6" mask="url(#path-1-inside-1_914_61528)"/>
    <mask id="path-3-inside-2_914_61528" fill="white">
        <path fill-rule="evenodd" clip-rule="evenodd"
              d="M9.35914 108.676C5.3744 111.369 0 108.514 0 103.705V26.2953C0 21.4863 5.37442 18.6314 9.35916 21.3238L66.6421 60.0285C70.1633 62.4077 70.1633 67.5925 66.6421 69.9716L9.35914 108.676ZM91 21.0001C93.2091 21.0001 95 22.7909 95 25.0001V105C95 107.209 93.2091 109 91 109H81.5C79.2909 109 77.5 107.209 77.5 105V25.0001C77.5 22.7909 79.2909 21.0001 81.5 21.0001H91Z"/>
    </mask>
    <path fill-rule="evenodd" clip-rule="evenodd"
          d="M9.35914 108.676C5.3744 111.369 0 108.514 0 103.705V26.2953C0 21.4863 5.37442 18.6314 9.35916 21.3238L66.6421 60.0285C70.1633 62.4077 70.1633 67.5925 66.6421 69.9716L9.35914 108.676ZM91 21.0001C93.2091 21.0001 95 22.7909 95 25.0001V105C95 107.209 93.2091 109 91 109H81.5C79.2909 109 77.5 107.209 77.5 105V25.0001C77.5 22.7909 79.2909 21.0001 81.5 21.0001H91Z"
          fill="#D6BBFB"/>
    <path d="M66.6421 69.9716L66.0823 69.143L66.6421 69.9716ZM9.35914 108.676L8.79928 107.848L9.35914 108.676ZM-1 26.2953V103.705H1V26.2953H-1ZM67.202 59.1999L9.91901 20.4952L8.7993 22.1524L66.0823 60.8571L67.202 59.1999ZM9.919 109.505L67.202 70.8002L66.0823 69.143L8.79928 107.848L9.919 109.505ZM96 25.0001C96 22.2386 93.7614 20.0001 91 20.0001V22.0001C92.6569 22.0001 94 23.3432 94 25.0001H96ZM96 105V25.0001H94V105H96ZM91 110C93.7614 110 96 107.761 96 105H94C94 106.657 92.6569 108 91 108V110ZM81.5 110H91V108H81.5V110ZM76.5 105C76.5 107.761 78.7386 110 81.5 110V108C79.8431 108 78.5 106.657 78.5 105H76.5ZM76.5 25.0001V105H78.5V25.0001H76.5ZM81.5 20.0001C78.7386 20.0001 76.5 22.2386 76.5 25.0001H78.5C78.5 23.3432 79.8431 22.0001 81.5 22.0001V20.0001ZM91 20.0001H81.5V22.0001H91V20.0001ZM66.0823 60.8571C69.0166 62.8397 69.0165 67.1604 66.0823 69.143L67.202 70.8002C71.31 68.0245 71.31 61.9756 67.202 59.1999L66.0823 60.8571ZM-1 103.705C-1 109.315 5.27014 112.646 9.919 109.505L8.79928 107.848C5.47867 110.091 1 107.712 1 103.705H-1ZM1 26.2953C1 22.2878 5.47868 19.9087 8.7993 22.1524L9.91901 20.4952C5.27015 17.3541 -1 20.6848 -1 26.2953H1Z"
          fill="url(#paint1_linear_914_61528)" fill-opacity="0.6" mask="url(#path-3-inside-2_914_61528)"/>
    <mask id="path-5-inside-3_914_61528" fill="white">
        <path fill-rule="evenodd" clip-rule="evenodd"
              d="M49.9746 104.882C45.1151 108.166 42.6854 109.807 40.6684 109.696C38.9115 109.598 37.2859 108.735 36.2217 107.334C35 105.725 35 102.792 35 96.9276V33.0725C35 27.2077 35 24.2753 36.2217 22.6666C37.2859 21.2653 38.9115 20.4018 40.6684 20.3045C42.6854 20.1929 45.1151 21.8346 49.9747 25.1181L97.2274 57.0456C101.17 59.7098 103.142 61.0419 103.831 62.7154C104.434 64.1789 104.434 65.8212 103.831 67.2847C103.142 68.9583 101.17 70.2904 97.2274 72.9545L49.9746 104.882ZM126 21.0001C128.209 21.0001 130 22.7909 130 25.0001V105C130 107.209 128.209 109 126 109H116.5C114.291 109 112.5 107.209 112.5 105V25.0001C112.5 22.7909 114.291 21.0001 116.5 21.0001H126Z"/>
    </mask>
    <path fill-rule="evenodd" clip-rule="evenodd"
          d="M49.9746 104.882C45.1151 108.166 42.6854 109.807 40.6684 109.696C38.9115 109.598 37.2859 108.735 36.2217 107.334C35 105.725 35 102.792 35 96.9276V33.0725C35 27.2077 35 24.2753 36.2217 22.6666C37.2859 21.2653 38.9115 20.4018 40.6684 20.3045C42.6854 20.1929 45.1151 21.8346 49.9747 25.1181L97.2274 57.0456C101.17 59.7098 103.142 61.0419 103.831 62.7154C104.434 64.1789 104.434 65.8212 103.831 67.2847C103.142 68.9583 101.17 70.2904 97.2274 72.9545L49.9746 104.882ZM126 21.0001C128.209 21.0001 130 22.7909 130 25.0001V105C130 107.209 128.209 109 126 109H116.5C114.291 109 112.5 107.209 112.5 105V25.0001C112.5 22.7909 114.291 21.0001 116.5 21.0001H126Z"
          fill="url(#paint2_linear_914_61528)"/>
    <path d="M103.831 62.7154L104.756 62.3347L103.831 62.7154ZM97.2274 72.9545L96.6675 72.126L97.2274 72.9545ZM103.831 67.2847L104.756 67.6655L103.831 67.2847ZM36.2217 107.334L37.0181 106.729L36.2217 107.334ZM49.9746 104.882L50.5345 105.711L49.9746 104.882ZM40.6684 109.696L40.6132 110.694L40.6684 109.696ZM40.6684 20.3045L40.6132 19.3061L40.6684 20.3045ZM34 33.0725V96.9276H36V33.0725H34ZM97.7873 56.217L50.5345 24.2895L49.4148 25.9467L96.6675 57.8742L97.7873 56.217ZM50.5345 105.711L97.7872 73.7831L96.6675 72.126L49.4148 104.053L50.5345 105.711ZM131 25.0001C131 22.2387 128.761 20.0001 126 20.0001V22.0001C127.657 22.0001 129 23.3432 129 25.0001H131ZM131 105V25.0001H129V105H131ZM126 110C128.761 110 131 107.762 131 105H129C129 106.657 127.657 108 126 108V110ZM116.5 110H126V108H116.5V110ZM111.5 105C111.5 107.762 113.739 110 116.5 110V108C114.843 108 113.5 106.657 113.5 105H111.5ZM111.5 25.0001V105H113.5V25.0001H111.5ZM116.5 20.0001C113.739 20.0001 111.5 22.2387 111.5 25.0001H113.5C113.5 23.3432 114.843 22.0001 116.5 22.0001V20.0001ZM126 20.0001H116.5V22.0001H126V20.0001ZM96.6675 57.8742C98.6549 59.217 100.088 60.1868 101.117 61.0266C102.143 61.8647 102.656 62.4883 102.906 63.0962L104.756 62.3347C104.317 61.269 103.499 60.3898 102.382 59.4774C101.267 58.5667 99.7429 57.5384 97.7873 56.217L96.6675 57.8742ZM97.7872 73.7831C99.7429 72.4618 101.266 71.4335 102.382 70.5228C103.499 69.6104 104.317 68.7312 104.756 67.6655L102.906 66.904C102.656 67.5118 102.143 68.1355 101.117 68.9736C100.088 69.8134 98.6549 70.7832 96.6675 72.126L97.7872 73.7831ZM102.906 63.0962C103.409 64.3158 103.409 65.6844 102.906 66.904L104.756 67.6655C105.459 65.9581 105.459 64.0421 104.756 62.3347L102.906 63.0962ZM34 96.9276C34 99.8401 33.999 102.094 34.1569 103.818C34.3138 105.531 34.6386 106.902 35.4253 107.938L37.0181 106.729C36.5831 106.156 36.2971 105.257 36.1485 103.635C36.001 102.025 36 99.8799 36 96.9276H34ZM49.4148 104.053C46.9685 105.706 45.1909 106.906 43.7736 107.686C42.347 108.47 41.4419 108.737 40.7237 108.697L40.6132 110.694C41.9119 110.766 43.2302 110.267 44.7375 109.438C46.2542 108.604 48.1212 107.341 50.5345 105.711L49.4148 104.053ZM35.4253 107.938C36.6669 109.573 38.5635 110.581 40.6132 110.694L40.7237 108.697C39.2596 108.616 37.9049 107.896 37.0181 106.729L35.4253 107.938ZM36 33.0725C36 30.1203 36.001 27.9756 36.1485 26.3648C36.2971 24.7433 36.5831 23.8442 37.0181 23.2714L35.4253 22.0618C34.6386 23.0977 34.3138 24.4692 34.1569 26.1823C33.999 27.9061 34 30.16 34 33.0725H36ZM50.5345 24.2895C48.1212 22.6589 46.2542 21.3962 44.7375 20.5619C43.2302 19.7328 41.912 19.2342 40.6132 19.3061L40.7237 21.303C41.4419 21.2633 42.347 21.5296 43.7736 22.3144C45.1909 23.0939 46.9686 24.2938 49.4148 25.9467L50.5345 24.2895ZM37.0181 23.2714C37.9049 22.1037 39.2596 21.384 40.7237 21.303L40.6132 19.3061C38.5635 19.4195 36.6669 20.427 35.4253 22.0618L37.0181 23.2714Z"
          fill="url(#paint3_linear_914_61528)" fill-opacity="0.6" mask="url(#path-5-inside-3_914_61528)"/>
    <defs>
        <linearGradient id="paint0_linear_914_61528" x1="28" y1="13.7255" x2="70.0058" y2="82.0545"
                        gradientUnits="userSpaceOnUse">
            <stop stop-color="white"/>
            <stop offset="1" stop-color="white" stop-opacity="0"/>
        </linearGradient>
        <linearGradient id="paint1_linear_914_61528" x1="-7" y1="13.7094" x2="35.025" y2="82.048"
                        gradientUnits="userSpaceOnUse">
            <stop stop-color="white"/>
            <stop offset="1" stop-color="white" stop-opacity="0"/>
        </linearGradient>
        <linearGradient id="paint2_linear_914_61528" x1="82.5" y1="20.2992" x2="82.5" y2="109.701"
                        gradientUnits="userSpaceOnUse">
            <stop stop-color="white" stop-opacity="0.4"/>
            <stop offset="0.5" stop-color="white" stop-opacity="0.1"/>
            <stop offset="1" stop-color="white" stop-opacity="0"/>
        </linearGradient>
        <linearGradient id="paint3_linear_914_61528" x1="28" y1="13.7255" x2="62.8044" y2="55.144"
                        gradientUnits="userSpaceOnUse">
            <stop stop-color="white"/>
            <stop offset="1" stop-color="white" stop-opacity="0"/>
        </linearGradient>
    </defs>
</svg>
